<?xml version="1.0"?>
<svg xmlns="http://www.w3.org/2000/svg" viewBox="0 0 64 64" width="512" height="512"><g id="Time"><path d="M30,56a26.076,26.076,0,0,0,6.061-.725,13.97,13.97,0,0,1-.959-1.831A24.038,24.038,0,1,1,53.444,35.1a13.97,13.97,0,0,1,1.831.959A26,26,0,1,0,30,56Z"/><polygon points="42.618 53 53.382 53 54.382 51 41.618 51 42.618 53"/><rect x="29" y="29" width="2" height="2" transform="translate(-12.426 30) rotate(-45)"/><path d="M48,44a6.006,6.006,0,0,0-5.91,5H53.91A6.006,6.006,0,0,0,48,44Z"/><path d="M48,36A12,12,0,1,0,60,48,12.013,12.013,0,0,0,48,36Zm8.618,15L54.9,54.447A1,1,0,0,1,54,55H42a1,1,0,0,1-.9-.553L39.382,51H38V49h2.069a8.009,8.009,0,0,1,5.957-6.743A1.98,1.98,0,0,1,46,42a2,2,0,0,1,4,0,1.98,1.98,0,0,1-.026.257A8.009,8.009,0,0,1,55.931,49H58v2Z"/><path d="M48,34a13.945,13.945,0,0,1,3.537.47A22.022,22.022,0,1,0,34.47,51.537,13.947,13.947,0,0,1,48,34Zm0-5h2v2H48ZM43.435,15.151l1.414,1.414-1.414,1.414-1.414-1.414ZM12,31H10V29h2ZM29,10h2v2H29ZM16.565,15.151l1.414,1.414-1.414,1.414-1.414-1.414Zm0,29.7-1.414-1.414,1.414-1.414,1.414,1.414ZM31,50H29V48h2Zm2.536-19.293-2.829,2.829a1,1,0,0,1-1.414,0L26.757,31H17V29h9.757L29,26.757V15h2V26.757l2.536,2.536A1,1,0,0,1,33.536,30.707Z"/></g></svg>
