<svg height="512" viewBox="0 0 512 512" width="512" xmlns="http://www.w3.org/2000/svg"><g id="Layer_10" data-name="Layer 10"><path d="m24 43.647v64a40 40 0 0 0 40 40 40 40 0 0 0 40-40v-64z" fill="#4799cf"/><circle cx="256" cy="256" fill="#eaeae8" r="176"/><circle cx="256" cy="256" fill="#dbdbdb" r="128"/><path d="m64 411.647a16 16 0 0 1 -16-16v-256h32v256a16 16 0 0 1 -16 16z" fill="#4799cf"/><g fill="#428dc5"><path d="m48 99.647a8 8 0 0 1 -8-8v-48a8 8 0 1 1 16 0v48a8 8 0 0 1 -8 8z"/><path d="m80 99.647a8 8 0 0 1 -8-8v-48a8 8 0 1 1 16 0v48a8 8 0 0 1 -8 8z"/><path d="m64 155.647a48.054 48.054 0 0 1 -48-48v-64a8 8 0 1 1 16 0v64a32 32 0 0 0 64 0v-64a8 8 0 1 1 16 0v64a48.054 48.054 0 0 1 -48 48z"/></g><path d="m448 40a40 40 0 0 0 -40 40v27.647a40 40 0 0 0 24 36.662v251.338a16 16 0 0 0 16 16 16 16 0 0 0 16-16v-251.338a40 40 0 0 0 24-36.662v-27.647a40 40 0 0 0 -40-40z" fill="#4799cf"/><path d="m448 123.647a8 8 0 0 1 0-16 8.009 8.009 0 0 0 8-8v-16a8.009 8.009 0 0 0 -8-8 8 8 0 1 1 0-16 24.027 24.027 0 0 1 24 24v16a24.027 24.027 0 0 1 -24 24z" fill="#428dc5"/><path d="m256 120c-74.99 0-136 61.009-136 136s61.01 136 136 136 136-61.009 136-136-61.01-136-136-136zm0 256a120 120 0 1 1 120-120 120.136 120.136 0 0 1 -120 120z"/><path d="m48 99.647a8 8 0 0 0 8-8v-48a8 8 0 1 0 -16 0v48a8 8 0 0 0 8 8z"/><path d="m80 99.647a8 8 0 0 0 8-8v-48a8 8 0 1 0 -16 0v48a8 8 0 0 0 8 8z"/><path d="m448 32a48.055 48.055 0 0 0 -48 48v27.647a48.016 48.016 0 0 0 24 41.57v31.767c-28.766-64.17-93.246-108.984-168-108.984s-139.234 44.814-168 108.984v-31.8a48.014 48.014 0 0 0 24-41.542v-64a8 8 0 1 0 -16 0v64a32 32 0 0 1 -64 0v-64a8 8 0 1 0 -16 0v64a48.014 48.014 0 0 0 24 41.542v246.466a24 24 0 0 0 48 0v-64.634c28.766 64.17 93.245 108.984 168 108.984s139.234-44.814 168-108.984v64.631a24 24 0 0 0 48 0v-246.43a48.016 48.016 0 0 0 24-41.57v-27.647a48.055 48.055 0 0 0 -48-48zm-376 363.65a8 8 0 0 1 -16 0v-240.682a47.468 47.468 0 0 0 16 0zm184 28.35c-92.636 0-168-75.364-168-168s75.364-168 168-168 168 75.364 168 168-75.364 168-168 168zm224-316.353a32.016 32.016 0 0 1 -19.2 29.332 8 8 0 0 0 -4.8 7.33v251.338a8 8 0 0 1 -16 0v-251.338a8 8 0 0 0 -4.8-7.33 32.016 32.016 0 0 1 -19.2-29.332v-27.647a32 32 0 0 1 64 0z"/><path d="m448 59.647a8 8 0 1 0 0 16 8.009 8.009 0 0 1 8 8v16a8.009 8.009 0 0 1 -8 8 8 8 0 0 0 0 16 24.027 24.027 0 0 0 24-24v-16a24.027 24.027 0 0 0 -24-24z"/></g></svg>